<?xml version="1.0" encoding="utf-8"?>
<!-- Generator: Adobe Illustrator 23.0.2, SVG Export Plug-In . SVG Version: 6.00 Build 0)  -->
<svg version="1.1" id="Layer_1" xmlns="http://www.w3.org/2000/svg" xmlns:xlink="http://www.w3.org/1999/xlink" x="0px" y="0px"
	 viewBox="0 0 273 173.27" style="enable-background:new 0 0 273 173.27;" xml:space="preserve">
<style type="text/css">
	.st0{fill:#FFFFFF;}
</style>
<g>
	<polygon class="st0" points="17.64,148.51 22.44,159.32 12.84,159.32 	"/>
	<path class="st0" d="M53.49,148.95c-0.74-0.65-1.75-0.99-3.02-0.99h-6.81v6.13h6.85c1.34,0,2.37-0.23,3.05-0.74
		c0.69-0.5,1.04-1.21,1.04-2.11C54.6,150.38,54.23,149.6,53.49,148.95z M53.8,158.26c-1.01-0.62-2.1-0.92-3.29-0.92h-6.85v6.7h6.81
		c1.26,0,2.38-0.25,3.36-0.74c0.97-0.49,1.46-1.29,1.46-2.42C55.29,159.76,54.79,158.88,53.8,158.26z M53.8,158.26
		c-1.01-0.62-2.1-0.92-3.29-0.92h-6.85v6.7h6.81c1.26,0,2.38-0.25,3.36-0.74c0.97-0.49,1.46-1.29,1.46-2.42
		C55.29,159.76,54.79,158.88,53.8,158.26z M53.49,148.95c-0.74-0.65-1.75-0.99-3.02-0.99h-6.81v6.13h6.85
		c1.34,0,2.37-0.23,3.05-0.74c0.69-0.5,1.04-1.21,1.04-2.11C54.6,150.38,54.23,149.6,53.49,148.95z M53.49,148.95
		c-0.74-0.65-1.75-0.99-3.02-0.99h-6.81v6.13h6.85c1.34,0,2.37-0.23,3.05-0.74c0.69-0.5,1.04-1.21,1.04-2.11
		C54.6,150.38,54.23,149.6,53.49,148.95z M53.8,158.26c-1.01-0.62-2.1-0.92-3.29-0.92h-6.85v6.7h6.81c1.26,0,2.38-0.25,3.36-0.74
		c0.97-0.49,1.46-1.29,1.46-2.42C55.29,159.76,54.79,158.88,53.8,158.26z M53.8,158.26c-1.01-0.62-2.1-0.92-3.29-0.92h-6.85v6.7
		h6.81c1.26,0,2.38-0.25,3.36-0.74c0.97-0.49,1.46-1.29,1.46-2.42C55.29,159.76,54.79,158.88,53.8,158.26z M53.49,148.95
		c-0.74-0.65-1.75-0.99-3.02-0.99h-6.81v6.13h6.85c1.34,0,2.37-0.23,3.05-0.74c0.69-0.5,1.04-1.21,1.04-2.11
		C54.6,150.38,54.23,149.6,53.49,148.95z M53.49,148.95c-0.74-0.65-1.75-0.99-3.02-0.99h-6.81v6.13h6.85c1.34,0,2.37-0.23,3.05-0.74
		c0.69-0.5,1.04-1.21,1.04-2.11C54.6,150.38,54.23,149.6,53.49,148.95z M53.8,158.26c-1.01-0.62-2.1-0.92-3.29-0.92h-6.85v6.7h6.81
		c1.26,0,2.38-0.25,3.36-0.74c0.97-0.49,1.46-1.29,1.46-2.42C55.29,159.76,54.79,158.88,53.8,158.26z M53.8,158.26
		c-1.01-0.62-2.1-0.92-3.29-0.92h-6.85v6.7h6.81c1.26,0,2.38-0.25,3.36-0.74c0.97-0.49,1.46-1.29,1.46-2.42
		C55.29,159.76,54.79,158.88,53.8,158.26z M53.49,148.95c-0.74-0.65-1.75-0.99-3.02-0.99h-6.81v6.13h6.85
		c1.34,0,2.37-0.23,3.05-0.74c0.69-0.5,1.04-1.21,1.04-2.11C54.6,150.38,54.23,149.6,53.49,148.95z M53.49,148.95
		c-0.74-0.65-1.75-0.99-3.02-0.99h-6.81v6.13h6.85c1.34,0,2.37-0.23,3.05-0.74c0.69-0.5,1.04-1.21,1.04-2.11
		C54.6,150.38,54.23,149.6,53.49,148.95z M53.8,158.26c-1.01-0.62-2.1-0.92-3.29-0.92h-6.85v6.7h6.81c1.26,0,2.38-0.25,3.36-0.74
		c0.97-0.49,1.46-1.29,1.46-2.42C55.29,159.76,54.79,158.88,53.8,158.26z M156.94,155.7c-0.94-1.02-2.11-1.54-3.54-1.54
		c-1.48,0-2.65,0.52-3.56,1.53c-0.91,1.02-1.34,2.27-1.34,3.74c0,1.48,0.44,2.7,1.33,3.69c0.89,1.01,2.08,1.49,3.58,1.49
		c1.49,0,2.69-0.49,3.59-1.49c0.89-0.99,1.34-2.22,1.34-3.69C158.34,157.96,157.87,156.74,156.94,155.7z M156.94,155.7
		c-0.94-1.02-2.11-1.54-3.54-1.54c-1.48,0-2.65,0.52-3.56,1.53c-0.91,1.02-1.34,2.27-1.34,3.74c0,1.48,0.44,2.7,1.33,3.69
		c0.89,1.01,2.08,1.49,3.58,1.49c1.49,0,2.69-0.49,3.59-1.49c0.89-0.99,1.34-2.22,1.34-3.69
		C158.34,157.96,157.87,156.74,156.94,155.7z M53.8,158.26c-1.01-0.62-2.1-0.92-3.29-0.92h-6.85v6.7h6.81
		c1.26,0,2.38-0.25,3.36-0.74c0.97-0.49,1.46-1.29,1.46-2.42C55.29,159.76,54.79,158.88,53.8,158.26z M53.49,148.95
		c-0.74-0.65-1.75-0.99-3.02-0.99h-6.81v6.13h6.85c1.34,0,2.37-0.23,3.05-0.74c0.69-0.5,1.04-1.21,1.04-2.11
		C54.6,150.38,54.23,149.6,53.49,148.95z M53.49,148.95c-0.74-0.65-1.75-0.99-3.02-0.99h-6.81v6.13h6.85c1.34,0,2.37-0.23,3.05-0.74
		c0.69-0.5,1.04-1.21,1.04-2.11C54.6,150.38,54.23,149.6,53.49,148.95z M53.8,158.26c-1.01-0.62-2.1-0.92-3.29-0.92h-6.85v6.7h6.81
		c1.26,0,2.38-0.25,3.36-0.74c0.97-0.49,1.46-1.29,1.46-2.42C55.29,159.76,54.79,158.88,53.8,158.26z M156.94,155.7
		c-0.94-1.02-2.11-1.54-3.54-1.54c-1.48,0-2.65,0.52-3.56,1.53c-0.91,1.02-1.34,2.27-1.34,3.74c0,1.48,0.44,2.7,1.33,3.69
		c0.89,1.01,2.08,1.49,3.58,1.49c1.49,0,2.69-0.49,3.59-1.49c0.89-0.99,1.34-2.22,1.34-3.69
		C158.34,157.96,157.87,156.74,156.94,155.7z M205.13,155.65c-0.99-0.97-2.2-1.46-3.63-1.46c-1.46,0-2.65,0.47-3.63,1.41
		c-0.96,0.92-1.44,2.18-1.44,3.79c0,1.58,0.49,2.85,1.44,3.79c0.97,0.96,2.17,1.43,3.63,1.43c1.43,0,2.64-0.49,3.63-1.46
		c0.97-0.97,1.48-2.23,1.48-3.76C206.61,157.88,206.1,156.62,205.13,155.65z M205.13,155.65c-0.99-0.97-2.2-1.46-3.63-1.46
		c-1.46,0-2.65,0.47-3.63,1.41c-0.96,0.92-1.44,2.18-1.44,3.79c0,1.58,0.49,2.85,1.44,3.79c0.97,0.96,2.17,1.43,3.63,1.43
		c1.43,0,2.64-0.49,3.63-1.46c0.97-0.97,1.48-2.23,1.48-3.76C206.61,157.88,206.1,156.62,205.13,155.65z M156.94,155.7
		c-0.94-1.02-2.11-1.54-3.54-1.54c-1.48,0-2.65,0.52-3.56,1.53c-0.91,1.02-1.34,2.27-1.34,3.74c0,1.48,0.44,2.7,1.33,3.69
		c0.89,1.01,2.08,1.49,3.58,1.49c1.49,0,2.69-0.49,3.59-1.49c0.89-0.99,1.34-2.22,1.34-3.69
		C158.34,157.96,157.87,156.74,156.94,155.7z M53.8,158.26c-1.01-0.62-2.1-0.92-3.29-0.92h-6.85v6.7h6.81
		c1.26,0,2.38-0.25,3.36-0.74c0.97-0.49,1.46-1.29,1.46-2.42C55.29,159.76,54.79,158.88,53.8,158.26z M53.49,148.95
		c-0.74-0.65-1.75-0.99-3.02-0.99h-6.81v6.13h6.85c1.34,0,2.37-0.23,3.05-0.74c0.69-0.5,1.04-1.21,1.04-2.11
		C54.6,150.38,54.23,149.6,53.49,148.95z M53.49,148.95c-0.74-0.65-1.75-0.99-3.02-0.99h-6.81v6.13h6.85c1.34,0,2.37-0.23,3.05-0.74
		c0.69-0.5,1.04-1.21,1.04-2.11C54.6,150.38,54.23,149.6,53.49,148.95z M53.8,158.26c-1.01-0.62-2.1-0.92-3.29-0.92h-6.85v6.7h6.81
		c1.26,0,2.38-0.25,3.36-0.74c0.97-0.49,1.46-1.29,1.46-2.42C55.29,159.76,54.79,158.88,53.8,158.26z M156.94,155.7
		c-0.94-1.02-2.11-1.54-3.54-1.54c-1.48,0-2.65,0.52-3.56,1.53c-0.91,1.02-1.34,2.27-1.34,3.74c0,1.48,0.44,2.7,1.33,3.69
		c0.89,1.01,2.08,1.49,3.58,1.49c1.49,0,2.69-0.49,3.59-1.49c0.89-0.99,1.34-2.22,1.34-3.69
		C158.34,157.96,157.87,156.74,156.94,155.7z M205.13,155.65c-0.99-0.97-2.2-1.46-3.63-1.46c-1.46,0-2.65,0.47-3.63,1.41
		c-0.96,0.92-1.44,2.18-1.44,3.79c0,1.58,0.49,2.85,1.44,3.79c0.97,0.96,2.17,1.43,3.63,1.43c1.43,0,2.64-0.49,3.63-1.46
		c0.97-0.97,1.48-2.23,1.48-3.76C206.61,157.88,206.1,156.62,205.13,155.65z M205.13,155.65c-0.99-0.97-2.2-1.46-3.63-1.46
		c-1.46,0-2.65,0.47-3.63,1.41c-0.96,0.92-1.44,2.18-1.44,3.79c0,1.58,0.49,2.85,1.44,3.79c0.97,0.96,2.17,1.43,3.63,1.43
		c1.43,0,2.64-0.49,3.63-1.46c0.97-0.97,1.48-2.23,1.48-3.76C206.61,157.88,206.1,156.62,205.13,155.65z M156.94,155.7
		c-0.94-1.02-2.11-1.54-3.54-1.54c-1.48,0-2.65,0.52-3.56,1.53c-0.91,1.02-1.34,2.27-1.34,3.74c0,1.48,0.44,2.7,1.33,3.69
		c0.89,1.01,2.08,1.49,3.58,1.49c1.49,0,2.69-0.49,3.59-1.49c0.89-0.99,1.34-2.22,1.34-3.69
		C158.34,157.96,157.87,156.74,156.94,155.7z M53.8,158.26c-1.01-0.62-2.1-0.92-3.29-0.92h-6.85v6.7h6.81
		c1.26,0,2.38-0.25,3.36-0.74c0.97-0.49,1.46-1.29,1.46-2.42C55.29,159.76,54.79,158.88,53.8,158.26z M53.49,148.95
		c-0.74-0.65-1.75-0.99-3.02-0.99h-6.81v6.13h6.85c1.34,0,2.37-0.23,3.05-0.74c0.69-0.5,1.04-1.21,1.04-2.11
		C54.6,150.38,54.23,149.6,53.49,148.95z M53.49,148.95c-0.74-0.65-1.75-0.99-3.02-0.99h-6.81v6.13h6.85c1.34,0,2.37-0.23,3.05-0.74
		c0.69-0.5,1.04-1.21,1.04-2.11C54.6,150.38,54.23,149.6,53.49,148.95z M53.8,158.26c-1.01-0.62-2.1-0.92-3.29-0.92h-6.85v6.7h6.81
		c1.26,0,2.38-0.25,3.36-0.74c0.97-0.49,1.46-1.29,1.46-2.42C55.29,159.76,54.79,158.88,53.8,158.26z M156.94,155.7
		c-0.94-1.02-2.11-1.54-3.54-1.54c-1.48,0-2.65,0.52-3.56,1.53c-0.91,1.02-1.34,2.27-1.34,3.74c0,1.48,0.44,2.7,1.33,3.69
		c0.89,1.01,2.08,1.49,3.58,1.49c1.49,0,2.69-0.49,3.59-1.49c0.89-0.99,1.34-2.22,1.34-3.69
		C158.34,157.96,157.87,156.74,156.94,155.7z M205.13,155.65c-0.99-0.97-2.2-1.46-3.63-1.46c-1.46,0-2.65,0.47-3.63,1.41
		c-0.96,0.92-1.44,2.18-1.44,3.79c0,1.58,0.49,2.85,1.44,3.79c0.97,0.96,2.17,1.43,3.63,1.43c1.43,0,2.64-0.49,3.63-1.46
		c0.97-0.97,1.48-2.23,1.48-3.76C206.61,157.88,206.1,156.62,205.13,155.65z M233.39,155.7c-0.92-1.02-2.11-1.54-3.54-1.54
		c-1.48,0-2.65,0.52-3.56,1.53c-0.89,1.02-1.34,2.27-1.34,3.74c0,1.48,0.44,2.7,1.33,3.69c0.89,1.01,2.08,1.49,3.57,1.49
		c1.49,0,2.69-0.49,3.59-1.49c0.89-0.99,1.34-2.22,1.34-3.69C234.78,157.96,234.33,156.74,233.39,155.7z M233.39,155.7
		c-0.92-1.02-2.11-1.54-3.54-1.54c-1.48,0-2.65,0.52-3.56,1.53c-0.89,1.02-1.34,2.27-1.34,3.74c0,1.48,0.44,2.7,1.33,3.69
		c0.89,1.01,2.08,1.49,3.57,1.49c1.49,0,2.69-0.49,3.59-1.49c0.89-0.99,1.34-2.22,1.34-3.69
		C234.78,157.96,234.33,156.74,233.39,155.7z M205.13,155.65c-0.99-0.97-2.2-1.46-3.63-1.46c-1.46,0-2.65,0.47-3.63,1.41
		c-0.96,0.92-1.44,2.18-1.44,3.79c0,1.58,0.49,2.85,1.44,3.79c0.97,0.96,2.17,1.43,3.63,1.43c1.43,0,2.64-0.49,3.63-1.46
		c0.97-0.97,1.48-2.23,1.48-3.76C206.61,157.88,206.1,156.62,205.13,155.65z M156.94,155.7c-0.94-1.02-2.11-1.54-3.54-1.54
		c-1.48,0-2.65,0.52-3.56,1.53c-0.91,1.02-1.34,2.27-1.34,3.74c0,1.48,0.44,2.7,1.33,3.69c0.89,1.01,2.08,1.49,3.58,1.49
		c1.49,0,2.69-0.49,3.59-1.49c0.89-0.99,1.34-2.22,1.34-3.69C158.34,157.96,157.87,156.74,156.94,155.7z M53.8,158.26
		c-1.01-0.62-2.1-0.92-3.29-0.92h-6.85v6.7h6.81c1.26,0,2.38-0.25,3.36-0.74c0.97-0.49,1.46-1.29,1.46-2.42
		C55.29,159.76,54.79,158.88,53.8,158.26z M53.56,153.35c0.69-0.5,1.04-1.21,1.04-2.11c0-0.86-0.37-1.63-1.11-2.28
		c-0.74-0.65-1.75-0.99-3.02-0.99h-6.81v6.13h6.85C51.85,154.08,52.87,153.85,53.56,153.35z M0.01,138.96v34.3H273v-34.3H0.01z
		 M25.95,167.41l-2.17-4.78H11.47l-2.13,4.78H5.46l10.2-22.74h3.96l10.19,22.74H25.95z M57.71,164.79c-0.82,1.01-1.83,1.7-3.02,2.06
		c-1.21,0.37-2.6,0.55-4.21,0.55H40.05v-22.74h10.42c2.3,0,4.16,0.55,5.59,1.63c1.43,1.09,2.15,2.7,2.15,4.87
		c0,2.15-1.06,3.66-3.16,4.51c1.26,0.37,2.22,1.07,2.87,2.13c0.67,1.06,0.99,2.08,0.99,3.1C58.91,162.49,58.51,163.79,57.71,164.79z
		 M77.73,167.44h-3.02l-0.2-2.38c-1.51,1.75-3.36,2.6-5.52,2.6c-2.01,0-3.64-0.67-4.88-2.05c-1.24-1.36-1.86-3.24-1.86-5.61v-8.61
		h3.34v8.58c0,1.38,0.39,2.5,1.16,3.34s1.83,1.26,3.21,1.26c1.29,0,2.35-0.45,3.19-1.39c0.84-0.92,1.26-2.08,1.26-3.44v-8.34h3.34
		V167.44z M97.8,167.41h-3.37v-8.58c0-1.41-0.39-2.53-1.14-3.36c-0.76-0.84-1.81-1.26-3.19-1.26c-1.29,0-2.37,0.47-3.21,1.39
		c-0.86,0.94-1.28,2.08-1.28,3.42v8.37h-3.34v-16.04h3.05l0.18,2.33c1.53-1.71,3.32-2.57,5.4-2.57c2.01,0,3.66,0.69,4.95,2.05
		c1.28,1.38,1.93,3.24,1.93,5.62V167.41z M109.55,167.83c-2.42,0-4.43-0.74-6.03-2.22c-1.61-1.46-2.42-3.54-2.42-6.19
		c0-2.67,0.81-4.73,2.42-6.21c1.59-1.46,3.61-2.2,6.03-2.2c2.27,0,4.18,0.79,5.79,2.37l-2.15,2.23c-0.97-0.94-2.18-1.43-3.61-1.43
		c-1.46,0-2.69,0.49-3.66,1.44c-0.97,0.97-1.46,2.23-1.46,3.79c0,1.63,0.49,2.89,1.46,3.79c0.97,0.91,2.18,1.36,3.63,1.36
		c1.56,0,2.84-0.49,3.81-1.49l2.27,2.25C113.95,166.99,111.92,167.83,109.55,167.83z M133.75,167.41h-3.34v-8.61
		c0-1.48-0.37-2.58-1.07-3.36c-0.72-0.77-1.7-1.16-2.95-1.16c-1.28,0-2.33,0.47-3.17,1.38c-0.84,0.92-1.24,2.06-1.24,3.39v8.36
		h-3.36v-22.74h3.36v9.1c1.23-1.73,2.95-2.6,5.19-2.6c2.18,0,3.84,0.69,4.93,2.03c1.11,1.36,1.66,3.22,1.66,5.57V167.41z
		 M159.43,165.38c-1.53,1.56-3.54,2.35-6.02,2.35c-2.47,0-4.46-0.79-5.97-2.35c-1.51-1.58-2.28-3.56-2.28-5.96
		c0-2.4,0.77-4.4,2.3-5.97c1.53-1.58,3.51-2.37,5.96-2.37s4.45,0.79,5.99,2.38c1.54,1.59,2.32,3.57,2.32,5.96
		C161.71,161.82,160.96,163.8,159.43,165.38z M175.12,148.11c-0.86-0.55-1.66-0.84-2.43-0.84c-0.79,0-1.43,0.27-1.9,0.81
		c-0.47,0.52-0.69,1.31-0.69,2.35v1.17h4.83v2.95h-4.83v12.86h-3.39v-12.86h-3.04v-2.95h3.04v-1.17c0-1.93,0.54-3.42,1.61-4.48
		s2.47-1.59,4.18-1.59c1.36,0,2.67,0.42,3.93,1.28L175.12,148.11z M189.29,167.41h-3.59v-22.74h3.59V167.41z M210.16,167.41h-3.14
		l-0.2-2.53c-1.16,1.9-3.02,2.85-5.55,2.85c-2.38,0-4.33-0.74-5.87-2.23c-1.53-1.49-2.3-3.54-2.3-6.11c0-2.63,0.76-4.7,2.25-6.16
		c1.51-1.46,3.46-2.18,5.86-2.18c1.07,0,2.15,0.25,3.24,0.76c1.09,0.5,1.88,1.21,2.38,2.1v-9.2h3.34V167.41z M218.07,167.41h-3.36
		v-16.08h3.36V167.41z M217.45,148.53c-0.69,0.35-1.39,0.35-2.08,0c-0.69-0.37-1.04-0.97-1.04-1.85c0-0.86,0.35-1.46,1.04-1.81
		c0.69-0.35,1.39-0.35,2.08,0c0.69,0.35,1.04,0.96,1.04,1.81C218.49,147.56,218.14,148.16,217.45,148.53z M235.88,165.38
		c-1.53,1.56-3.52,2.35-6.03,2.35c-2.47,0-4.46-0.79-5.97-2.35c-1.51-1.58-2.27-3.56-2.27-5.96c0-2.4,0.76-4.4,2.28-5.97
		c1.53-1.58,3.51-2.37,5.96-2.37c2.45,0,4.45,0.79,5.99,2.38c1.54,1.59,2.33,3.57,2.33,5.96
		C238.17,161.82,237.4,163.8,235.88,165.38z M248.7,167.59c-1.76,0.05-3.1-0.4-4.04-1.38c-0.94-0.96-1.41-2.38-1.41-4.26v-7.64
		h-3.09v-2.89h3.09v-4.3l3.37-0.35v4.65h4.67v2.89h-4.7v7.64c0,1.75,0.77,2.62,2.3,2.62c0.64,0,1.31-0.18,2.05-0.54l0.97,2.85
		C250.83,167.36,249.76,167.59,248.7,167.59z M265.65,166.5c-1.24,0.92-2.89,1.39-4.93,1.39c-3.12,0-5.56-0.99-7.32-2.95l1.76-2.38
		c1.38,1.54,3.26,2.33,5.61,2.38c0.92,0,1.71-0.18,2.38-0.52c0.67-0.35,1.01-0.87,1.04-1.56c0.02-0.69-0.29-1.21-0.91-1.53
		c-0.6-0.32-1.54-0.55-2.8-0.69c-4.33-0.4-6.51-2.01-6.53-4.8c0-1.63,0.67-2.84,2.03-3.66c1.36-0.81,2.9-1.21,4.63-1.21
		c2.5,0,4.56,0.7,6.16,2.13l-1.88,2.22c-1.07-0.99-2.48-1.49-4.21-1.49c-1.04-0.02-1.88,0.13-2.48,0.47
		c-0.62,0.34-0.92,0.82-0.92,1.44c0.02,1.16,1.17,1.83,3.47,2.05c0.91,0.08,1.7,0.2,2.35,0.34c0.65,0.15,1.36,0.39,2.11,0.72
		c0.74,0.34,1.31,0.84,1.71,1.51c0.4,0.67,0.6,1.49,0.6,2.47C267.51,164.34,266.87,165.56,265.65,166.5z M229.85,154.15
		c-1.48,0-2.65,0.52-3.56,1.53c-0.89,1.02-1.34,2.27-1.34,3.74c0,1.48,0.44,2.7,1.33,3.69c0.89,1.01,2.08,1.49,3.57,1.49
		c1.49,0,2.69-0.49,3.59-1.49c0.89-0.99,1.34-2.22,1.34-3.69c0-1.46-0.45-2.69-1.39-3.73C232.47,154.67,231.28,154.15,229.85,154.15
		z M201.5,154.19c-1.46,0-2.65,0.47-3.63,1.41c-0.96,0.92-1.44,2.18-1.44,3.79c0,1.58,0.49,2.85,1.44,3.79
		c0.97,0.96,2.17,1.43,3.63,1.43c1.43,0,2.64-0.49,3.63-1.46c0.97-0.97,1.48-2.23,1.48-3.76c0-1.51-0.5-2.77-1.48-3.74
		C204.14,154.67,202.93,154.19,201.5,154.19z M153.4,154.15c-1.48,0-2.65,0.52-3.56,1.53c-0.91,1.02-1.34,2.27-1.34,3.74
		c0,1.48,0.44,2.7,1.33,3.69c0.89,1.01,2.08,1.49,3.58,1.49c1.49,0,2.69-0.49,3.59-1.49c0.89-0.99,1.34-2.22,1.34-3.69
		c0-1.46-0.47-2.69-1.39-3.73C156,154.67,154.83,154.15,153.4,154.15z M53.8,158.26c-1.01-0.62-2.1-0.92-3.29-0.92h-6.85v6.7h6.81
		c1.26,0,2.38-0.25,3.36-0.74c0.97-0.49,1.46-1.29,1.46-2.42C55.29,159.76,54.79,158.88,53.8,158.26z M53.56,153.35
		c0.69-0.5,1.04-1.21,1.04-2.11c0-0.86-0.37-1.63-1.11-2.28c-0.74-0.65-1.75-0.99-3.02-0.99h-6.81v6.13h6.85
		C51.85,154.08,52.87,153.85,53.56,153.35z M53.49,148.95c-0.74-0.65-1.75-0.99-3.02-0.99h-6.81v6.13h6.85
		c1.34,0,2.37-0.23,3.05-0.74c0.69-0.5,1.04-1.21,1.04-2.11C54.6,150.38,54.23,149.6,53.49,148.95z M53.8,158.26
		c-1.01-0.62-2.1-0.92-3.29-0.92h-6.85v6.7h6.81c1.26,0,2.38-0.25,3.36-0.74c0.97-0.49,1.46-1.29,1.46-2.42
		C55.29,159.76,54.79,158.88,53.8,158.26z M156.94,155.7c-0.94-1.02-2.11-1.54-3.54-1.54c-1.48,0-2.65,0.52-3.56,1.53
		c-0.91,1.02-1.34,2.27-1.34,3.74c0,1.48,0.44,2.7,1.33,3.69c0.89,1.01,2.08,1.49,3.58,1.49c1.49,0,2.69-0.49,3.59-1.49
		c0.89-0.99,1.34-2.22,1.34-3.69C158.34,157.96,157.87,156.74,156.94,155.7z M205.13,155.65c-0.99-0.97-2.2-1.46-3.63-1.46
		c-1.46,0-2.65,0.47-3.63,1.41c-0.96,0.92-1.44,2.18-1.44,3.79c0,1.58,0.49,2.85,1.44,3.79c0.97,0.96,2.17,1.43,3.63,1.43
		c1.43,0,2.64-0.49,3.63-1.46c0.97-0.97,1.48-2.23,1.48-3.76C206.61,157.88,206.1,156.62,205.13,155.65z M233.39,155.7
		c-0.92-1.02-2.11-1.54-3.54-1.54c-1.48,0-2.65,0.52-3.56,1.53c-0.89,1.02-1.34,2.27-1.34,3.74c0,1.48,0.44,2.7,1.33,3.69
		c0.89,1.01,2.08,1.49,3.57,1.49c1.49,0,2.69-0.49,3.59-1.49c0.89-0.99,1.34-2.22,1.34-3.69
		C234.78,157.96,234.33,156.74,233.39,155.7z M233.39,155.7c-0.92-1.02-2.11-1.54-3.54-1.54c-1.48,0-2.65,0.52-3.56,1.53
		c-0.89,1.02-1.34,2.27-1.34,3.74c0,1.48,0.44,2.7,1.33,3.69c0.89,1.01,2.08,1.49,3.57,1.49c1.49,0,2.69-0.49,3.59-1.49
		c0.89-0.99,1.34-2.22,1.34-3.69C234.78,157.96,234.33,156.74,233.39,155.7z M205.13,155.65c-0.99-0.97-2.2-1.46-3.63-1.46
		c-1.46,0-2.65,0.47-3.63,1.41c-0.96,0.92-1.44,2.18-1.44,3.79c0,1.58,0.49,2.85,1.44,3.79c0.97,0.96,2.17,1.43,3.63,1.43
		c1.43,0,2.64-0.49,3.63-1.46c0.97-0.97,1.48-2.23,1.48-3.76C206.61,157.88,206.1,156.62,205.13,155.65z M156.94,155.7
		c-0.94-1.02-2.11-1.54-3.54-1.54c-1.48,0-2.65,0.52-3.56,1.53c-0.91,1.02-1.34,2.27-1.34,3.74c0,1.48,0.44,2.7,1.33,3.69
		c0.89,1.01,2.08,1.49,3.58,1.49c1.49,0,2.69-0.49,3.59-1.49c0.89-0.99,1.34-2.22,1.34-3.69
		C158.34,157.96,157.87,156.74,156.94,155.7z M53.8,158.26c-1.01-0.62-2.1-0.92-3.29-0.92h-6.85v6.7h6.81
		c1.26,0,2.38-0.25,3.36-0.74c0.97-0.49,1.46-1.29,1.46-2.42C55.29,159.76,54.79,158.88,53.8,158.26z M53.49,148.95
		c-0.74-0.65-1.75-0.99-3.02-0.99h-6.81v6.13h6.85c1.34,0,2.37-0.23,3.05-0.74c0.69-0.5,1.04-1.21,1.04-2.11
		C54.6,150.38,54.23,149.6,53.49,148.95z M53.49,148.95c-0.74-0.65-1.75-0.99-3.02-0.99h-6.81v6.13h6.85c1.34,0,2.37-0.23,3.05-0.74
		c0.69-0.5,1.04-1.21,1.04-2.11C54.6,150.38,54.23,149.6,53.49,148.95z M53.8,158.26c-1.01-0.62-2.1-0.92-3.29-0.92h-6.85v6.7h6.81
		c1.26,0,2.38-0.25,3.36-0.74c0.97-0.49,1.46-1.29,1.46-2.42C55.29,159.76,54.79,158.88,53.8,158.26z M156.94,155.7
		c-0.94-1.02-2.11-1.54-3.54-1.54c-1.48,0-2.65,0.52-3.56,1.53c-0.91,1.02-1.34,2.27-1.34,3.74c0,1.48,0.44,2.7,1.33,3.69
		c0.89,1.01,2.08,1.49,3.58,1.49c1.49,0,2.69-0.49,3.59-1.49c0.89-0.99,1.34-2.22,1.34-3.69
		C158.34,157.96,157.87,156.74,156.94,155.7z M205.13,155.65c-0.99-0.97-2.2-1.46-3.63-1.46c-1.46,0-2.65,0.47-3.63,1.41
		c-0.96,0.92-1.44,2.18-1.44,3.79c0,1.58,0.49,2.85,1.44,3.79c0.97,0.96,2.17,1.43,3.63,1.43c1.43,0,2.64-0.49,3.63-1.46
		c0.97-0.97,1.48-2.23,1.48-3.76C206.61,157.88,206.1,156.62,205.13,155.65z M205.13,155.65c-0.99-0.97-2.2-1.46-3.63-1.46
		c-1.46,0-2.65,0.47-3.63,1.41c-0.96,0.92-1.44,2.18-1.44,3.79c0,1.58,0.49,2.85,1.44,3.79c0.97,0.96,2.17,1.43,3.63,1.43
		c1.43,0,2.64-0.49,3.63-1.46c0.97-0.97,1.48-2.23,1.48-3.76C206.61,157.88,206.1,156.62,205.13,155.65z M156.94,155.7
		c-0.94-1.02-2.11-1.54-3.54-1.54c-1.48,0-2.65,0.52-3.56,1.53c-0.91,1.02-1.34,2.27-1.34,3.74c0,1.48,0.44,2.7,1.33,3.69
		c0.89,1.01,2.08,1.49,3.58,1.49c1.49,0,2.69-0.49,3.59-1.49c0.89-0.99,1.34-2.22,1.34-3.69
		C158.34,157.96,157.87,156.74,156.94,155.7z M53.8,158.26c-1.01-0.62-2.1-0.92-3.29-0.92h-6.85v6.7h6.81
		c1.26,0,2.38-0.25,3.36-0.74c0.97-0.49,1.46-1.29,1.46-2.42C55.29,159.76,54.79,158.88,53.8,158.26z M53.49,148.95
		c-0.74-0.65-1.75-0.99-3.02-0.99h-6.81v6.13h6.85c1.34,0,2.37-0.23,3.05-0.74c0.69-0.5,1.04-1.21,1.04-2.11
		C54.6,150.38,54.23,149.6,53.49,148.95z M53.49,148.95c-0.74-0.65-1.75-0.99-3.02-0.99h-6.81v6.13h6.85c1.34,0,2.37-0.23,3.05-0.74
		c0.69-0.5,1.04-1.21,1.04-2.11C54.6,150.38,54.23,149.6,53.49,148.95z M53.8,158.26c-1.01-0.62-2.1-0.92-3.29-0.92h-6.85v6.7h6.81
		c1.26,0,2.38-0.25,3.36-0.74c0.97-0.49,1.46-1.29,1.46-2.42C55.29,159.76,54.79,158.88,53.8,158.26z M156.94,155.7
		c-0.94-1.02-2.11-1.54-3.54-1.54c-1.48,0-2.65,0.52-3.56,1.53c-0.91,1.02-1.34,2.27-1.34,3.74c0,1.48,0.44,2.7,1.33,3.69
		c0.89,1.01,2.08,1.49,3.58,1.49c1.49,0,2.69-0.49,3.59-1.49c0.89-0.99,1.34-2.22,1.34-3.69
		C158.34,157.96,157.87,156.74,156.94,155.7z M156.94,155.7c-0.94-1.02-2.11-1.54-3.54-1.54c-1.48,0-2.65,0.52-3.56,1.53
		c-0.91,1.02-1.34,2.27-1.34,3.74c0,1.48,0.44,2.7,1.33,3.69c0.89,1.01,2.08,1.49,3.58,1.49c1.49,0,2.69-0.49,3.59-1.49
		c0.89-0.99,1.34-2.22,1.34-3.69C158.34,157.96,157.87,156.74,156.94,155.7z M53.8,158.26c-1.01-0.62-2.1-0.92-3.29-0.92h-6.85v6.7
		h6.81c1.26,0,2.38-0.25,3.36-0.74c0.97-0.49,1.46-1.29,1.46-2.42C55.29,159.76,54.79,158.88,53.8,158.26z M53.49,148.95
		c-0.74-0.65-1.75-0.99-3.02-0.99h-6.81v6.13h6.85c1.34,0,2.37-0.23,3.05-0.74c0.69-0.5,1.04-1.21,1.04-2.11
		C54.6,150.38,54.23,149.6,53.49,148.95z M53.49,148.95c-0.74-0.65-1.75-0.99-3.02-0.99h-6.81v6.13h6.85c1.34,0,2.37-0.23,3.05-0.74
		c0.69-0.5,1.04-1.21,1.04-2.11C54.6,150.38,54.23,149.6,53.49,148.95z M53.8,158.26c-1.01-0.62-2.1-0.92-3.29-0.92h-6.85v6.7h6.81
		c1.26,0,2.38-0.25,3.36-0.74c0.97-0.49,1.46-1.29,1.46-2.42C55.29,159.76,54.79,158.88,53.8,158.26z M156.94,155.7
		c-0.94-1.02-2.11-1.54-3.54-1.54c-1.48,0-2.65,0.52-3.56,1.53c-0.91,1.02-1.34,2.27-1.34,3.74c0,1.48,0.44,2.7,1.33,3.69
		c0.89,1.01,2.08,1.49,3.58,1.49c1.49,0,2.69-0.49,3.59-1.49c0.89-0.99,1.34-2.22,1.34-3.69
		C158.34,157.96,157.87,156.74,156.94,155.7z M156.94,155.7c-0.94-1.02-2.11-1.54-3.54-1.54c-1.48,0-2.65,0.52-3.56,1.53
		c-0.91,1.02-1.34,2.27-1.34,3.74c0,1.48,0.44,2.7,1.33,3.69c0.89,1.01,2.08,1.49,3.58,1.49c1.49,0,2.69-0.49,3.59-1.49
		c0.89-0.99,1.34-2.22,1.34-3.69C158.34,157.96,157.87,156.74,156.94,155.7z M53.8,158.26c-1.01-0.62-2.1-0.92-3.29-0.92h-6.85v6.7
		h6.81c1.26,0,2.38-0.25,3.36-0.74c0.97-0.49,1.46-1.29,1.46-2.42C55.29,159.76,54.79,158.88,53.8,158.26z M53.49,148.95
		c-0.74-0.65-1.75-0.99-3.02-0.99h-6.81v6.13h6.85c1.34,0,2.37-0.23,3.05-0.74c0.69-0.5,1.04-1.21,1.04-2.11
		C54.6,150.38,54.23,149.6,53.49,148.95z M53.49,148.95c-0.74-0.65-1.75-0.99-3.02-0.99h-6.81v6.13h6.85c1.34,0,2.37-0.23,3.05-0.74
		c0.69-0.5,1.04-1.21,1.04-2.11C54.6,150.38,54.23,149.6,53.49,148.95z M53.8,158.26c-1.01-0.62-2.1-0.92-3.29-0.92h-6.85v6.7h6.81
		c1.26,0,2.38-0.25,3.36-0.74c0.97-0.49,1.46-1.29,1.46-2.42C55.29,159.76,54.79,158.88,53.8,158.26z M53.8,158.26
		c-1.01-0.62-2.1-0.92-3.29-0.92h-6.85v6.7h6.81c1.26,0,2.38-0.25,3.36-0.74c0.97-0.49,1.46-1.29,1.46-2.42
		C55.29,159.76,54.79,158.88,53.8,158.26z M53.49,148.95c-0.74-0.65-1.75-0.99-3.02-0.99h-6.81v6.13h6.85
		c1.34,0,2.37-0.23,3.05-0.74c0.69-0.5,1.04-1.21,1.04-2.11C54.6,150.38,54.23,149.6,53.49,148.95z M53.49,148.95
		c-0.74-0.65-1.75-0.99-3.02-0.99h-6.81v6.13h6.85c1.34,0,2.37-0.23,3.05-0.74c0.69-0.5,1.04-1.21,1.04-2.11
		C54.6,150.38,54.23,149.6,53.49,148.95z M53.8,158.26c-1.01-0.62-2.1-0.92-3.29-0.92h-6.85v6.7h6.81c1.26,0,2.38-0.25,3.36-0.74
		c0.97-0.49,1.46-1.29,1.46-2.42C55.29,159.76,54.79,158.88,53.8,158.26z M53.8,158.26c-1.01-0.62-2.1-0.92-3.29-0.92h-6.85v6.7
		h6.81c1.26,0,2.38-0.25,3.36-0.74c0.97-0.49,1.46-1.29,1.46-2.42C55.29,159.76,54.79,158.88,53.8,158.26z M53.49,148.95
		c-0.74-0.65-1.75-0.99-3.02-0.99h-6.81v6.13h6.85c1.34,0,2.37-0.23,3.05-0.74c0.69-0.5,1.04-1.21,1.04-2.11
		C54.6,150.38,54.23,149.6,53.49,148.95z"/>
	<g>
		<path class="st0" d="M66.66,120.93h-14.9V83.75H14.9v37.17H0V28.7c0-9.73,2.67-16.94,8-21.64C13.33,2.35,21.7,0,33.09,0
			c11.4,0,19.81,2.35,25.25,7.06c5.44,4.71,8.16,11.92,8.16,21.64L66.66,120.93z M51.76,30.43c0-2.72-0.26-5.18-0.79-7.37
			c-0.52-2.2-1.47-4.08-2.82-5.65c-1.36-1.57-3.24-2.77-5.65-3.61c-2.41-0.84-5.49-1.26-9.25-1.26c-3.97,0-7.16,0.37-9.57,1.1
			c-2.41,0.73-4.26,1.86-5.57,3.37c-1.31,1.52-2.17,3.4-2.59,5.65c-0.42,2.25-0.63,4.84-0.63,7.76v40.78h36.86V30.43z"/>
		<path class="st0" d="M86.45,120.93V1.73h42.19c5.75,0,10.3,0.5,13.65,1.49c3.35,0.99,5.88,2.54,7.61,4.63
			c1.72,2.09,2.82,4.73,3.29,7.92c0.47,3.19,0.71,6.98,0.71,11.37v14.9c0,3.35-0.34,6.17-1.02,8.47c-0.68,2.3-1.44,4.18-2.27,5.65
			c-1.05,1.67-2.14,2.98-3.29,3.92c1.67,0.73,3.14,1.88,4.39,3.45c1.15,1.36,2.17,3.24,3.06,5.65c0.89,2.41,1.33,5.54,1.33,9.41
			v18.19c0,4.71-0.24,8.6-0.71,11.68c-0.47,3.09-1.62,5.54-3.45,7.37c-1.83,1.83-4.6,3.14-8.31,3.92
			c-3.71,0.79-8.81,1.18-15.29,1.18h-26.98H86.45z M101.35,14.27v39.68h30.27c1.78,0,3.16-0.26,4.16-0.78
			c0.99-0.52,1.73-1.31,2.2-2.35c0.47-1.04,0.73-2.35,0.78-3.92c0.05-1.57,0.08-3.45,0.08-5.65V22.9c0-2.82-0.42-4.96-1.25-6.43
			c-0.84-1.46-3.03-2.19-6.59-2.19H101.35z M141.03,79.83c0-2.82-0.1-5.1-0.31-6.82c-0.21-1.72-0.71-3.06-1.49-4
			c-0.79-0.94-1.91-1.59-3.37-1.96c-1.47-0.37-3.45-0.55-5.96-0.55h-28.55v41.88h28.23c2.51,0,4.52-0.13,6.04-0.39
			c1.51-0.26,2.66-0.84,3.45-1.72c0.78-0.89,1.31-2.22,1.57-4c0.26-1.78,0.39-4.23,0.39-7.37V79.83z"/>
		<path class="st0" d="M205.52,122.65c-11.61,0-20.02-2.43-25.25-7.29c-5.23-4.86-7.84-12.31-7.84-22.35V56.62
			c0-10.14,2.59-17.67,7.76-22.59c5.18-4.91,13.62-7.37,25.33-7.37c11.71,0,20.21,2.46,25.49,7.37c5.28,4.92,7.92,12.44,7.92,22.59
			v36.39c0,10.14-2.64,17.62-7.92,22.43C225.73,120.25,217.23,122.65,205.52,122.65z M187.33,92.22c0,3.03,0.21,5.65,0.63,7.84
			c0.42,2.19,1.28,4.05,2.59,5.57c1.3,1.52,3.16,2.64,5.57,3.37c2.4,0.73,5.59,1.1,9.57,1.1c3.76,0,6.85-0.42,9.25-1.25
			c2.4-0.84,4.29-2.04,5.65-3.61c1.36-1.57,2.3-3.45,2.82-5.65c0.52-2.2,0.78-4.65,0.78-7.37V57.09c0-2.72-0.26-5.2-0.78-7.45
			c-0.52-2.25-1.47-4.16-2.82-5.72c-1.36-1.57-3.24-2.77-5.65-3.61c-2.41-0.84-5.49-1.26-9.25-1.26c-3.97,0-7.16,0.39-9.57,1.18
			c-2.41,0.79-4.26,1.91-5.57,3.37c-1.31,1.47-2.17,3.35-2.59,5.65c-0.42,2.3-0.63,4.92-0.63,7.84V92.22z"/>
		<rect x="258.09" y="1.73" class="st0" width="14.9" height="119.2"/>
	</g>
</g>
</svg>
