<?xml version="1.0" encoding="UTF-8"?>
<svg width="400" height="200" version="1.1" viewBox="0 0 105.83 52.917" xmlns="http://www.w3.org/2000/svg" xmlns:cc="http://creativecommons.org/ns#" xmlns:dc="http://purl.org/dc/elements/1.1/" xmlns:rdf="http://www.w3.org/1999/02/22-rdf-syntax-ns#">
 <metadata>
  <rdf:RDF>
   <cc:Work rdf:about="">
    <dc:format>image/svg+xml</dc:format>
    <dc:type rdf:resource="http://purl.org/dc/dcmitype/StillImage"/>
    <dc:title/>
   </cc:Work>
  </rdf:RDF>
 </metadata>
 <text x="-0.87429869" y="47.081066" fill="#ffffff" font-family="Poppins" font-size="59.483px" font-weight="500" stroke-width=".44612" style="line-height:1.25" xml:space="preserve"><tspan x="-0.87429869" y="47.081066" fill="#ffffff" font-family="Poppins" font-size="59.483px" font-weight="300" stroke-width=".44612">R</tspan></text>
 <text x="56.861176" y="47.081066" fill="#ffffff" font-family="Poppins" font-size="56.112px" stroke-width=".42084" style="line-height:1.25" xml:space="preserve"><tspan x="56.861176" y="47.081066" fill="#ffffff" font-family="Poppins" font-size="56.112px" font-weight="300" stroke-width=".42084">t</tspan></text>
 <path d="m45.462 20.558a13.229 13.229 0 0 0-13.216 13.229 13.229 13.229 0 0 0 13.229 13.229 13.229 13.229 0 0 0 13.229-13.229 13.229 13.229 0 0 0-13.229-13.229 13.229 13.229 0 0 0-0.01344 0zm-0.03307 1.3229a11.906 11.906 0 0 1 5.16e-4 0 11.906 11.906 0 0 1 0.03669 0 1.9844 1.9844 0 0 0-1.9146 1.4996 10.583 10.583 0 0 0-4.0757 1.6883 1.9844 1.9844 0 0 0-1.0118-0.2775 1.9844 1.9844 0 0 0-1.9844 1.9844 1.9844 1.9844 0 0 0 0.27802 1.0113 10.583 10.583 0 0 0-1.6888 4.0762 1.9844 1.9844 0 0 0-1.4996 1.9115 11.906 11.906 0 0 1 11.86-11.894zm0.05891 0a11.906 11.906 0 0 1 11.894 11.906 1.9844 1.9844 0 0 0-1.4997-1.9244 10.583 10.583 0 0 0-1.6883-4.0757 1.9844 1.9844 0 0 0 0.2775-1.0113 1.9844 1.9844 0 0 0-1.9844-1.9844 1.9844 1.9844 0 0 0-1.0113 0.2775 10.583 10.583 0 0 0-4.0757-1.6888 1.9844 1.9844 0 0 0-1.912-1.4991zm-0.0124 3.3073a8.599 8.7347 0 0 1 8.599 8.7343 8.599 8.7347 0 0 1-8.599 8.7349 8.599 8.7347 0 0 1-8.599-8.7349 8.599 8.7347 0 0 1 8.599-8.7343zm-11.906 8.599a1.9844 1.9844 0 0 0 1.4996 1.9239 10.583 10.583 0 0 0 1.6888 4.0757 1.9844 1.9844 0 0 0-0.27802 1.0118 1.9844 1.9844 0 0 0 1.9844 1.9844 1.9844 1.9844 0 0 0 1.0118-0.27802 10.583 10.583 0 0 0 4.0757 1.6888 1.9844 1.9844 0 0 0 1.9115 1.4996 11.906 11.906 0 0 1-11.894-11.906zm23.812 0.01137a11.906 11.906 0 0 1-11.906 11.895 1.9844 1.9844 0 0 0 1.9244-1.4996 10.583 10.583 0 0 0 4.0757-1.6888 1.9844 1.9844 0 0 0 1.0113 0.27802 1.9844 1.9844 0 0 0 1.9844-1.9844 1.9844 1.9844 0 0 0-0.2775-1.0118 10.583 10.583 0 0 0 1.6888-4.0757 1.9844 1.9844 0 0 0 1.4991-1.9125z" fill="#fff" fill-rule="evenodd" stroke-width=".13229"/>
 <path d="m89.559 20.558a13.229 13.229 0 0 0-13.216 13.229 13.229 13.229 0 0 0 13.229 13.229 13.229 13.229 0 0 0 13.229-13.229 13.229 13.229 0 0 0-13.229-13.229 13.229 13.229 0 0 0-0.01344 0zm-0.03307 1.3229a11.906 11.906 0 0 1 5.29e-4 0 11.906 11.906 0 0 1 0.03669 0 1.9844 1.9844 0 0 0-1.9146 1.4996 10.583 10.583 0 0 0-4.0757 1.6883 1.9844 1.9844 0 0 0-1.0118-0.2775 1.9844 1.9844 0 0 0-1.9844 1.9844 1.9844 1.9844 0 0 0 0.27802 1.0113 10.583 10.583 0 0 0-1.6888 4.0762 1.9844 1.9844 0 0 0-1.4997 1.9115 11.906 11.906 0 0 1 11.86-11.894zm0.05891 0a11.906 11.906 0 0 1 11.894 11.906 1.9844 1.9844 0 0 0-1.4996-1.9244 10.583 10.583 0 0 0-1.6883-4.0757 1.9844 1.9844 0 0 0 0.2775-1.0113 1.9844 1.9844 0 0 0-1.9844-1.9844 1.9844 1.9844 0 0 0-1.0113 0.2775 10.583 10.583 0 0 0-4.0757-1.6888 1.9844 1.9844 0 0 0-1.912-1.4991zm-0.01241 3.3073a8.599 8.7347 0 0 1 8.599 8.7344 8.599 8.7347 0 0 1-8.599 8.7349 8.599 8.7347 0 0 1-8.599-8.7349 8.599 8.7347 0 0 1 8.599-8.7344zm-11.906 8.599a1.9844 1.9844 0 0 0 1.4996 1.9239 10.583 10.583 0 0 0 1.6888 4.0757 1.9844 1.9844 0 0 0-0.27802 1.0118 1.9844 1.9844 0 0 0 1.9844 1.9844 1.9844 1.9844 0 0 0 1.0118-0.27802 10.583 10.583 0 0 0 4.0757 1.6888 1.9844 1.9844 0 0 0 1.9115 1.4996 11.906 11.906 0 0 1-11.894-11.906zm23.813 0.01138a11.906 11.906 0 0 1-11.906 11.895 1.9844 1.9844 0 0 0 1.9244-1.4996 10.583 10.583 0 0 0 4.0757-1.6888 1.9844 1.9844 0 0 0 1.0113 0.27802 1.9844 1.9844 0 0 0 1.9844-1.9844 1.9844 1.9844 0 0 0-0.2775-1.0118 10.583 10.583 0 0 0 1.6888-4.0757 1.9844 1.9844 0 0 0 1.4991-1.9125z" fill="#fff" fill-rule="evenodd" stroke-width=".13229"/>
</svg>
