<?xml version="1.0" encoding="UTF-8" standalone="no"?>
<svg
   xmlns:dc="http://purl.org/dc/elements/1.1/"
   xmlns:cc="http://creativecommons.org/ns#"
   xmlns:rdf="http://www.w3.org/1999/02/22-rdf-syntax-ns#"
   xmlns:svg="http://www.w3.org/2000/svg"
   xmlns="http://www.w3.org/2000/svg"
   xmlns:sodipodi="http://sodipodi.sourceforge.net/DTD/sodipodi-0.dtd"
   xmlns:inkscape="http://www.inkscape.org/namespaces/inkscape"
   sodipodi:docname="RotoLogoWhite2.svg"
   inkscape:version="1.0 (4035a4fb49, 2020-05-01)"
   id="svg8"
   version="1.1"
   viewBox="0 0 105.83333 52.916668"
   height="200"
   width="400">
  <defs
     id="defs2" />
  <sodipodi:namedview
     units="px"
     inkscape:window-maximized="1"
     inkscape:window-y="-8"
     inkscape:window-x="1912"
     inkscape:window-height="1017"
     inkscape:window-width="1920"
     showgrid="false"
     inkscape:document-rotation="0"
     inkscape:current-layer="layer1"
     inkscape:document-units="px"
     inkscape:cy="77.701125"
     inkscape:cx="218.32233"
     inkscape:zoom="2.8284271"
     inkscape:pageshadow="2"
     inkscape:pageopacity="0.0"
     borderopacity="1.0"
     bordercolor="#666666"
     pagecolor="#ffffff"
     id="base"
     showguides="false" />
  <metadata
     id="metadata5">
    <rdf:RDF>
      <cc:Work
         rdf:about="">
        <dc:format>image/svg+xml</dc:format>
        <dc:type
           rdf:resource="http://purl.org/dc/dcmitype/StillImage" />
        <dc:title></dc:title>
      </cc:Work>
    </rdf:RDF>
  </metadata>
  <g
     id="layer1"
     inkscape:groupmode="layer"
     inkscape:label="Layer 1">
    <text
       id="text526"
       y="47.081066"
       x="-0.87429869"
       style="font-style:normal;font-variant:normal;font-weight:500;font-stretch:normal;font-size:59.4829px;line-height:1.25;font-family:Poppins;-inkscape-font-specification:'Poppins Medium';fill:#ffffff;stroke-width:0.446122"
       xml:space="preserve"><tspan
         style="font-style:normal;font-variant:normal;font-weight:300;font-stretch:normal;font-size:59.4829px;font-family:Poppins;-inkscape-font-specification:'Poppins Light';fill:#ffffff;stroke-width:0.446122"
         y="47.081066"
         x="-0.87429869"
         id="tspan524"
         sodipodi:role="line">R</tspan></text>
    <text
       id="text634"
       y="47.081066"
       x="56.861176"
       style="font-size:56.1121px;line-height:1.25;font-family:Poppins;-inkscape-font-specification:Poppins;fill:#ffffff;stroke-width:0.420841"
       xml:space="preserve"><tspan
         style="font-style:normal;font-variant:normal;font-weight:300;font-stretch:normal;font-size:56.1121px;font-family:Poppins;-inkscape-font-specification:'Poppins Light';fill:#ffffff;stroke-width:0.420841"
         y="47.081066"
         x="56.861176"
         id="tspan632"
         sodipodi:role="line">t</tspan></text>
    <path
       id="path12-8"
       style="fill:#ffffff;fill-rule:evenodd;stroke-width:0.132291"
       d="M 45.461824,20.558127 A 13.229167,13.229167 0 0 0 32.246093,33.787293 13.229167,13.229167 0 0 0 45.47526,47.016459 13.229167,13.229167 0 0 0 58.704426,33.787293 13.229167,13.229167 0 0 0 45.47526,20.558127 a 13.229167,13.229167 0 0 0 -0.01344,0 z m -0.03307,1.322917 a 11.90625,11.90625 0 0 1 5.16e-4,0 11.90625,11.90625 0 0 1 0.03669,0 1.9843749,1.9843749 0 0 0 -1.91461,1.49965 10.583333,10.583333 0 0 0 -4.075721,1.688269 1.9843749,1.9843749 0 0 0 -1.011824,-0.277502 1.9843749,1.9843749 0 0 0 -1.984375,1.984374 1.9843749,1.9843749 0 0 0 0.278018,1.011308 10.583333,10.583333 0 0 0 -1.688785,4.076237 1.9843749,1.9843749 0 0 0 -1.49965,1.911512 11.90625,11.90625 0 0 1 11.859741,-11.893848 z m 0.05891,0 a 11.90625,11.90625 0 0 1 11.893846,11.906249 1.9843749,1.9843749 0 0 0 -1.499651,-1.924429 10.583333,10.583333 0 0 0 -1.688269,-4.075721 1.9843749,1.9843749 0 0 0 0.277503,-1.011308 1.9843749,1.9843749 0 0 0 -1.984375,-1.984374 1.9843749,1.9843749 0 0 0 -1.011309,0.277502 10.583333,10.583333 0 0 0 -4.075718,-1.688786 1.9843749,1.9843749 0 0 0 -1.912027,-1.499133 z m -0.0124,3.307292 a 8.598958,8.7346659 0 0 1 8.598958,8.734349 8.598958,8.7346659 0 0 1 -8.598958,8.734867 8.598958,8.7346659 0 0 1 -8.598958,-8.734867 8.598958,8.7346659 0 0 1 8.598958,-8.734349 z m -11.90625,8.598957 a 1.9843749,1.9843749 0 0 0 1.49965,1.923915 10.583333,10.583333 0 0 0 1.688785,4.075718 1.9843749,1.9843749 0 0 0 -0.278018,1.011825 1.9843749,1.9843749 0 0 0 1.984375,1.984375 1.9843749,1.9843749 0 0 0 1.011824,-0.278019 10.583333,10.583333 0 0 0 4.075721,1.688788 1.9843749,1.9843749 0 0 0 1.911509,1.499648 11.90625,11.90625 0 0 1 -11.893846,-11.90625 z m 23.8125,0.01137 a 11.90625,11.90625 0 0 1 -11.90625,11.894881 1.9843749,1.9843749 0 0 0 1.924431,-1.499648 10.583333,10.583333 0 0 0 4.075718,-1.688788 1.9843749,1.9843749 0 0 0 1.011309,0.278019 1.9843749,1.9843749 0 0 0 1.984375,-1.984375 1.9843749,1.9843749 0 0 0 -0.277503,-1.011825 10.583333,10.583333 0 0 0 1.688785,-4.075718 1.9843749,1.9843749 0 0 0 1.499135,-1.912546 z" />
    <path
       d="M 89.558566,20.558127 A 13.229167,13.229167 0 0 0 76.342835,33.787292 13.229167,13.229167 0 0 0 89.572002,47.016458 13.229167,13.229167 0 0 0 102.80117,33.787292 13.229167,13.229167 0 0 0 89.572002,20.558127 a 13.229167,13.229167 0 0 0 -0.01344,0 z m -0.03307,1.322917 a 11.90625,11.90625 0 0 1 5.29e-4,0 11.90625,11.90625 0 0 1 0.03669,0 1.9843749,1.9843749 0 0 0 -1.91461,1.499649 10.583333,10.583333 0 0 0 -4.07572,1.688269 1.9843749,1.9843749 0 0 0 -1.011825,-0.277502 1.9843749,1.9843749 0 0 0 -1.984375,1.984374 1.9843749,1.9843749 0 0 0 0.278019,1.011309 10.583333,10.583333 0 0 0 -1.688785,4.076237 1.9843749,1.9843749 0 0 0 -1.499651,1.911511 11.90625,11.90625 0 0 1 11.859741,-11.893847 z m 0.05891,0 a 11.90625,11.90625 0 0 1 11.893844,11.906248 1.9843749,1.9843749 0 0 0 -1.499649,-1.924428 10.583333,10.583333 0 0 0 -1.688269,-4.075721 1.9843749,1.9843749 0 0 0 0.277503,-1.011309 1.9843749,1.9843749 0 0 0 -1.984375,-1.984374 1.9843749,1.9843749 0 0 0 -1.011309,0.277502 10.583333,10.583333 0 0 0 -4.075718,-1.688785 1.9843749,1.9843749 0 0 0 -1.912027,-1.499133 z m -0.01241,3.307291 a 8.598958,8.734666 0 0 1 8.598962,8.73435 8.598958,8.734666 0 0 1 -8.598959,8.734867 8.598958,8.734666 0 0 1 -8.598958,-8.734867 8.598958,8.734666 0 0 1 8.598958,-8.73435 z m -11.906249,8.598957 a 1.9843749,1.9843749 0 0 0 1.49965,1.923915 10.583333,10.583333 0 0 0 1.688785,4.075719 1.9843749,1.9843749 0 0 0 -0.278019,1.011824 1.9843749,1.9843749 0 0 0 1.984375,1.984375 1.9843749,1.9843749 0 0 0 1.011825,-0.278018 10.583333,10.583333 0 0 0 4.075721,1.688787 1.9843749,1.9843749 0 0 0 1.911509,1.499648 11.90625,11.90625 0 0 1 -11.893846,-11.90625 z m 23.812503,0.01138 a 11.90625,11.90625 0 0 1 -11.906254,11.894881 1.9843749,1.9843749 0 0 0 1.924431,-1.499648 10.583333,10.583333 0 0 0 4.075719,-1.688787 1.9843749,1.9843749 0 0 0 1.011309,0.278018 1.9843749,1.9843749 0 0 0 1.984375,-1.984375 1.9843749,1.9843749 0 0 0 -0.277503,-1.011824 10.583333,10.583333 0 0 0 1.688785,-4.075719 1.9843749,1.9843749 0 0 0 1.499138,-1.912546 z"
       style="fill:#ffffff;fill-rule:evenodd;stroke-width:0.132291"
       id="path12-8-6" />
  </g>
</svg>
