<?xml version="1.0" encoding="UTF-8" standalone="no"?>
<svg
   xmlns:dc="http://purl.org/dc/elements/1.1/"
   xmlns:cc="http://creativecommons.org/ns#"
   xmlns:rdf="http://www.w3.org/1999/02/22-rdf-syntax-ns#"
   xmlns:svg="http://www.w3.org/2000/svg"
   xmlns="http://www.w3.org/2000/svg"
   xmlns:sodipodi="http://sodipodi.sourceforge.net/DTD/sodipodi-0.dtd"
   xmlns:inkscape="http://www.inkscape.org/namespaces/inkscape"
   inkscape:export-ydpi="96"
   inkscape:export-xdpi="96"
   inkscape:export-filename="D:\Github\rotobungie.github.io\images\RotoLogoBlack3.png"
   width="200"
   height="100"
   viewBox="0 0 52.916665 26.458334"
   version="1.1"
   id="svg8"
   inkscape:version="1.0 (4035a4fb49, 2020-05-01)"
   sodipodi:docname="RotoBearingLogo.svg">
  <defs
     id="defs2" />
  <sodipodi:namedview
     units="px"
     inkscape:window-maximized="1"
     inkscape:window-y="-8"
     inkscape:window-x="1912"
     inkscape:window-height="1017"
     inkscape:window-width="1920"
     showgrid="false"
     inkscape:document-rotation="0"
     inkscape:current-layer="layer1"
     inkscape:document-units="px"
     inkscape:cy="44.556043"
     inkscape:cx="99.59254"
     inkscape:zoom="4"
     inkscape:pageshadow="2"
     inkscape:pageopacity="0.0"
     borderopacity="1.0"
     bordercolor="#666666"
     pagecolor="#ffffff"
     id="base"
     showguides="false" />
  <metadata
     id="metadata5">
    <rdf:RDF>
      <cc:Work
         rdf:about="">
        <dc:format>image/svg+xml</dc:format>
        <dc:type
           rdf:resource="http://purl.org/dc/dcmitype/StillImage" />
        <dc:title></dc:title>
      </cc:Work>
    </rdf:RDF>
  </metadata>
  <g
     id="layer1"
     inkscape:groupmode="layer"
     inkscape:label="Layer 1">
    <text
       id="text526"
       y="23.230633"
       x="0.37517878"
       style="font-style:normal;font-variant:normal;font-weight:500;font-stretch:normal;font-size:28.6165px;line-height:1.25;font-family:Poppins;-inkscape-font-specification:'Poppins Medium';stroke-width:0.214624"
       xml:space="preserve"><tspan
         dx="0"
         style="font-style:normal;font-variant:normal;font-weight:300;font-stretch:normal;font-size:28.6165px;font-family:Poppins;-inkscape-font-specification:'Poppins Light';stroke-width:0.214624"
         y="23.230633"
         x="0.37517878"
         id="tspan524"
         sodipodi:role="line">R</tspan></text>
    <text
       id="text634"
       y="23.230633"
       x="28.151003"
       style="font-size:26.9948px;line-height:1.25;font-family:Poppins;-inkscape-font-specification:Poppins;stroke-width:0.202462"
       xml:space="preserve"><tspan
         style="font-style:normal;font-variant:normal;font-weight:300;font-stretch:normal;font-size:26.9948px;font-family:Poppins;-inkscape-font-specification:'Poppins Light';stroke-width:0.202462"
         y="23.230633"
         x="28.151003"
         id="tspan632"
         sodipodi:role="line">t</tspan></text>
    <path
       id="path12-8"
       style="fill:#000000;fill-rule:evenodd;stroke-width:0.0636436"
       d="m 22.666917,10.470776 a 6.3643891,6.3643891 0 0 0 -6.357926,6.364388 6.3643891,6.3643891 0 0 0 6.364389,6.364388 6.3643891,6.3643891 0 0 0 6.364389,-6.364388 6.3643891,6.3643891 0 0 0 -6.364389,-6.364388 6.3643891,6.3643891 0 0 0 -0.0065,0 z m -0.01591,0.636438 a 5.72795,5.72795 0 0 1 2.48e-4,0 5.72795,5.72795 0 0 1 0.01765,0 0.9546583,0.9546583 0 0 0 -0.921096,0.721464 5.091511,5.091511 0 0 0 -1.960779,0.812205 0.9546583,0.9546583 0 0 0 -0.486776,-0.133502 0.9546583,0.9546583 0 0 0 -0.954659,0.954657 0.9546583,0.9546583 0 0 0 0.133751,0.486528 5.091511,5.091511 0 0 0 -0.812454,1.961028 0.9546583,0.9546583 0 0 0 -0.721463,0.919605 5.72795,5.72795 0 0 1 5.705576,-5.721985 z m 0.02834,0 a 5.72795,5.72795 0 0 1 5.721982,5.72795 0.9546583,0.9546583 0 0 0 -0.721463,-0.925818 5.091511,5.091511 0 0 0 -0.812206,-1.96078 0.9546583,0.9546583 0 0 0 0.133503,-0.486528 0.9546583,0.9546583 0 0 0 -0.954658,-0.954657 0.9546583,0.9546583 0 0 0 -0.486528,0.133502 5.091511,5.091511 0 0 0 -1.960777,-0.812454 0.9546583,0.9546583 0 0 0 -0.919853,-0.721215 z m -0.006,1.591098 a 4.1368527,4.2021401 0 0 1 4.136852,4.201988 4.1368527,4.2021401 0 0 1 -4.136852,4.202237 4.1368527,4.2021401 0 0 1 -4.136852,-4.202237 4.1368527,4.2021401 0 0 1 4.136852,-4.201988 z m -5.727949,4.136852 a 0.9546583,0.9546583 0 0 0 0.721463,0.925572 5.091511,5.091511 0 0 0 0.812453,1.960778 0.9546583,0.9546583 0 0 0 -0.133751,0.486776 0.9546583,0.9546583 0 0 0 0.954659,0.954659 0.9546583,0.9546583 0 0 0 0.486775,-0.133752 5.091511,5.091511 0 0 0 1.960779,0.812455 0.9546583,0.9546583 0 0 0 0.919604,0.721463 5.72795,5.72795 0 0 1 -5.721982,-5.727951 z m 11.4559,0.0054 a 5.72795,5.72795 0 0 1 -5.727951,5.722481 0.9546583,0.9546583 0 0 0 0.92582,-0.721462 5.091511,5.091511 0 0 0 1.960778,-0.812454 0.9546583,0.9546583 0 0 0 0.486529,0.133751 0.9546583,0.9546583 0 0 0 0.954658,-0.954658 0.9546583,0.9546583 0 0 0 -0.133504,-0.486777 5.091511,5.091511 0 0 0 0.812454,-1.960777 0.9546583,0.9546583 0 0 0 0.721216,-0.920104 z" />
    <path
       d="m 43.881315,10.470776 a 6.3643891,6.3643891 0 0 0 -6.357926,6.364388 6.3643891,6.3643891 0 0 0 6.36439,6.364388 6.3643891,6.3643891 0 0 0 6.364389,-6.364388 6.3643891,6.3643891 0 0 0 -6.364389,-6.364388 6.3643891,6.3643891 0 0 0 -0.0065,0 z m -0.0159,0.636438 a 5.72795,5.72795 0 0 1 2.54e-4,0 5.72795,5.72795 0 0 1 0.01765,0 0.9546583,0.9546583 0 0 0 -0.921094,0.721463 5.091511,5.091511 0 0 0 -1.96078,0.812206 0.9546583,0.9546583 0 0 0 -0.486776,-0.133503 0.9546583,0.9546583 0 0 0 -0.954658,0.954657 0.9546583,0.9546583 0 0 0 0.133751,0.486529 5.091511,5.091511 0 0 0 -0.812453,1.961028 0.9546583,0.9546583 0 0 0 -0.721464,0.919604 5.72795,5.72795 0 0 1 5.705575,-5.721984 z m 0.02834,0 a 5.72795,5.72795 0 0 1 5.721982,5.72795 0.9546583,0.9546583 0 0 0 -0.721463,-0.925818 5.091511,5.091511 0 0 0 -0.812205,-1.96078 0.9546583,0.9546583 0 0 0 0.133503,-0.486529 0.9546583,0.9546583 0 0 0 -0.954658,-0.954657 0.9546583,0.9546583 0 0 0 -0.486529,0.133503 5.091511,5.091511 0 0 0 -1.960777,-0.812454 0.9546583,0.9546583 0 0 0 -0.919853,-0.721215 z m -0.006,1.591098 A 4.1368527,4.2021401 0 0 1 48.02461,16.9003 4.1368527,4.2021401 0 0 1 43.887758,21.102537 4.1368527,4.2021401 0 0 1 39.750904,16.9003 4.1368527,4.2021401 0 0 1 43.887758,12.698312 Z m -5.727949,4.136852 a 0.9546583,0.9546583 0 0 0 0.721463,0.925572 5.091511,5.091511 0 0 0 0.812453,1.960778 0.9546583,0.9546583 0 0 0 -0.133751,0.486776 0.9546583,0.9546583 0 0 0 0.954659,0.954658 0.9546583,0.9546583 0 0 0 0.486776,-0.133751 5.091511,5.091511 0 0 0 1.960778,0.812454 0.9546583,0.9546583 0 0 0 0.919604,0.721462 5.72795,5.72795 0 0 1 -5.721982,-5.727949 z m 11.455902,0.0054 a 5.72795,5.72795 0 0 1 -5.727953,5.722481 0.9546583,0.9546583 0 0 0 0.92582,-0.721462 5.091511,5.091511 0 0 0 1.960779,-0.812454 0.9546583,0.9546583 0 0 0 0.486528,0.133751 0.9546583,0.9546583 0 0 0 0.954658,-0.954658 0.9546583,0.9546583 0 0 0 -0.133504,-0.486776 5.091511,5.091511 0 0 0 0.812454,-1.960778 0.9546583,0.9546583 0 0 0 0.721218,-0.920104 z"
       style="fill:#000000;fill-rule:evenodd;stroke-width:0.0636436"
       id="path12-8-6" />
  </g>
</svg>
