<?xml version="1.0" encoding="UTF-8" standalone="no"?>
<svg
   xmlns:dc="http://purl.org/dc/elements/1.1/"
   xmlns:cc="http://creativecommons.org/ns#"
   xmlns:rdf="http://www.w3.org/1999/02/22-rdf-syntax-ns#"
   xmlns:svg="http://www.w3.org/2000/svg"
   xmlns="http://www.w3.org/2000/svg"
   xmlns:sodipodi="http://sodipodi.sourceforge.net/DTD/sodipodi-0.dtd"
   xmlns:inkscape="http://www.inkscape.org/namespaces/inkscape"
   inkscape:export-ydpi="96"
   inkscape:export-xdpi="96"
   inkscape:export-filename="D:\Github\rotobungie.github.io\images\RotoBearingLogo.png"
   width="32"
   height="32"
   viewBox="0 0 8.4666664 8.4666669"
   version="1.1"
   id="svg8"
   inkscape:version="1.0 (4035a4fb49, 2020-05-01)"
   sodipodi:docname="RotoBearingLogoWhite.svg">
  <defs
     id="defs2" />
  <sodipodi:namedview
     showguides="false"
     id="base"
     pagecolor="#ffffff"
     bordercolor="#666666"
     borderopacity="1.0"
     inkscape:pageopacity="0.0"
     inkscape:pageshadow="2"
     inkscape:zoom="4"
     inkscape:cx="99.59254"
     inkscape:cy="44.556043"
     inkscape:document-units="px"
     inkscape:current-layer="layer1"
     inkscape:document-rotation="0"
     showgrid="false"
     inkscape:window-width="1920"
     inkscape:window-height="1017"
     inkscape:window-x="1912"
     inkscape:window-y="-8"
     inkscape:window-maximized="1"
     units="px" />
  <metadata
     id="metadata5">
    <rdf:RDF>
      <cc:Work
         rdf:about="">
        <dc:format>image/svg+xml</dc:format>
        <dc:type
           rdf:resource="http://purl.org/dc/dcmitype/StillImage" />
        <dc:title></dc:title>
      </cc:Work>
    </rdf:RDF>
  </metadata>
  <g
     inkscape:label="Layer 1"
     inkscape:groupmode="layer"
     id="layer1">
    <path
       d="M 4.2290344,5.5105515e-7 A 4.2333334,4.2333334 0 0 0 0,4.2333334 4.2333334,4.2333334 0 0 0 4.2333334,8.4666663 4.2333334,4.2333334 0 0 0 8.4666666,4.2333334 4.2333334,4.2333334 0 0 0 4.2333334,5.5105515e-7 a 4.2333334,4.2333334 0 0 0 -0.00432,0 z M 4.2184429,0.42333331 a 3.8099999,3.8099999 0 0 1 1.649e-4,0 3.8099999,3.8099999 0 0 1 0.01174,0 A 0.63499997,0.63499997 0 0 0 3.6176755,0.90322203 3.3866666,3.3866666 0 0 0 2.3134505,1.4434678 0.63499997,0.63499997 0 0 0 1.9896668,1.3546676 0.63499997,0.63499997 0 0 0 1.3546663,1.9896668 0.63499997,0.63499997 0 0 0 1.443632,2.3132855 3.3866666,3.3866666 0 0 0 0.90322072,3.6176818 0.63499997,0.63499997 0 0 0 0.42333271,4.2293656 3.8099999,3.8099999 0 0 1 4.2184503,0.42333331 Z m 0.018852,0 A 3.8099999,3.8099999 0 0 1 8.0433326,4.2333334 0.63499997,0.63499997 0 0 0 7.5634449,3.6175167 3.3866666,3.3866666 0 0 0 7.0231981,2.3132855 0.63499997,0.63499997 0 0 0 7.1119993,1.9896668 0.63499997,0.63499997 0 0 0 6.4769992,1.3546676 0.63499997,0.63499997 0 0 0 6.1533805,1.4434678 3.3866666,3.3866666 0 0 0 4.8491512,0.90305625 0.63499997,0.63499997 0 0 0 4.2373023,0.42333331 Z m -0.004,1.05833379 A 2.7516665,2.7950932 0 0 1 6.9849774,4.2766591 2.7516665,2.7950932 0 0 1 4.2333113,7.0718167 2.7516665,2.7950932 0 0 1 1.4816452,4.2766591 2.7516665,2.7950932 0 0 1 4.2333113,1.4816671 Z M 0.423306,4.2333334 A 0.63499997,0.63499997 0 0 0 0.90320002,4.8489862 3.3866666,3.3866666 0 0 0 1.4436108,6.1532163 0.63499997,0.63499997 0 0 0 1.3546451,6.4769999 0.63499997,0.63499997 0 0 0 1.9896455,7.1120003 0.63499997,0.63499997 0 0 0 2.3134284,7.023034 3.3866666,3.3866666 0 0 0 3.617659,7.5634459 0.63499997,0.63499997 0 0 0 4.2293423,8.0433349 3.8099999,3.8099999 0 0 1 0.42331207,4.2333334 Z m 7.62,0.00359 a 3.8099999,3.8099999 0 0 1 -3.8099947,3.8063641 0.63499997,0.63499997 0 0 0 0.6158179,-0.4798878 3.3866666,3.3866666 0 0 0 1.30423,-0.5404111 0.63499997,0.63499997 0 0 0 0.3236194,0.088966 0.63499997,0.63499997 0 0 0 0.635,-0.6349998 A 0.63499997,0.63499997 0 0 0 7.0231769,6.1531704 3.3866666,3.3866666 0 0 0 7.5635882,4.8489411 0.63499997,0.63499997 0 0 0 8.043312,4.2369252 Z"
       style="fill:#ffffff;fill-rule:evenodd;stroke-width:0.0423332"
       id="path12-8" />
  </g>
</svg>
